<svg aria-hidden="true" style="position:absolute;width:0;height:0;overflow:hidden" xmlns="http://www.w3.org/2000/svg">
<defs>
    <symbol id="logo" viewBox="0 0 32 32">
        <path d="M0.289 6.484c-0.262 0-0.357 0.19-0.238 0.357 2.308 3.235 4.663 6.471 6.947 9.73v8.731c0 0.095 0.095 0.214 0.262 0.214h3.116c0.143 0 0.262-0.119 0.262-0.214v-8.731l4.591-6.447h-4.425l-1.998 2.783-4.52-6.352c-0.048-0.048-0.167-0.071-0.238-0.071zM16.228 6.484c-0.119 0-0.238 0.119-0.238 0.214v14.25h3.64v-8.041l8.755 12.537c0.024 0.048 0.167 0.071 0.214 0.071h3.14c0.167 0 0.262-0.119 0.262-0.214v-18.603c0-0.095-0.095-0.214-0.262-0.214h-3.069c-0.167 0-0.285 0.119-0.285 0.214v12.394l-8.778-12.537c-0.024-0.048-0.167-0.071-0.214-0.071z"></path>
    </symbol>
    <symbol id="envelop" viewBox="0 0 32 32">
        <path d="M0.645 5.056v21.888h30.596v-21.887zM3.125 7.535h25.636v1.092l-10.659 9.614c-1.175 1.060-3.035 1.060-4.21 0l-10.768-9.614zM3.125 11.81l4.859 4.455-4.859 3.49zM28.761 11.811v7.89l-4.804-3.436zM9.851 17.977l2.991 2.742c2.263 1.449 4.47 1.387 6.31 0l2.949-2.734 6.66 4.762v1.716h-25.636v-1.66z"></path>
    </symbol>
    <symbol id="arrow_right" viewBox="0 0 45 32">
        <path d="M1.937 14.11h24.298c1.070 0 1.937 0.867 1.937 1.937s-0.867 1.937-1.937 1.937h-24.298c-1.070 0-1.937-0.867-1.937-1.937s0.867-1.937 1.937-1.937z"></path>
        <path d="M17.274 28.396l24.306-14.026c0.924-0.533 2.105-0.216 2.638 0.707v0c0.533 0.923 0.217 2.104-0.707 2.637l-24.306 14.026c-0.924 0.533-2.105 0.216-2.638-0.707v0c-0.533-0.923-0.217-2.104 0.707-2.637z"></path>
        <path d="M19.229 0.26l24.306 14.026c0.924 0.533 1.24 1.713 0.707 2.637v0c-0.533 0.923-1.714 1.24-2.638 0.707l-24.306-14.026c-0.924-0.533-1.24-1.714-0.707-2.637v0c0.533-0.923 1.714-1.24 2.638-0.707z"></path>
    </symbol>
    <symbol id="account" viewBox="0 0 32 32">
        <path d="M11.072 17.512l-6.938 1.863h0.034c-1.057 0-1.907 0.851-1.907 1.907v8.81c0 1.057 0.851 1.907 1.907 1.907h23.663c1.057 0 1.907-0.851 1.907-1.907v-8.81c0-1.052-0.844-1.9-1.894-1.907h0.024l-6.936-1.863c-3.401 1.189-6.694 1.251-9.86 0zM11.985 20.313c2.579 0.794 5.263 0.755 8.034 0l5.631 1.183c0.856 0.005 1.543 0.543 1.543 1.211v5.594c0 0.671-0.693 1.211-1.554 1.211h-19.277c-0.861 0-1.554-0.54-1.554-1.211v-5.594c0-0.671 0.693-1.211 1.554-1.211h-0.027z"></path>
        <path d="M15.724 0c-4.871 0-8.82 3.949-8.82 8.82v0c0 4.871 3.949 8.82 8.82 8.82v0c4.871-0 8.82-3.949 8.82-8.82v0c-0-4.871-3.949-8.82-8.82-8.82v0zM15.724 2.479c0 0 0 0 0 0 3.502 0 6.341 2.839 6.341 6.341 0 0 0 0 0 0v-0c0 0 0 0 0 0 0 3.502-2.839 6.341-6.341 6.341-0 0-0 0-0 0h0c-0 0-0 0-0 0-3.502 0-6.341-2.839-6.341-6.341 0-0 0-0 0-0v0c0-0 0-0 0-0 0-3.502 2.839-6.341 6.341-6.341 0 0 0 0 0 0h-0z"></path>
    </symbol>
    <symbol id="phone" viewBox="0 0 16 16">
        <path d="M11 10c-1 1-1 2-2 2s-2-1-3-2-2-2-2-3 1-1 2-2-2-4-3-4-3 3-3 3c0 2 2.055 6.055 4 8s6 4 8 4c0 0 3-2 3-3s-3-4-4-3z"></path>
    </symbol>
    <symbol id="map" viewBox="0 0 32 32">
        <path d="M16 0c-5.635 0-10.286 4.52-10.286 10.172 0 4.435 2.464 8.369 4.837 11.217s4.757 4.663 4.757 4.663c0.19 0.146 0.431 0.233 0.692 0.233s0.502-0.088 0.695-0.235l-0.003 0.002c0 0 2.384-1.815 4.757-4.663s4.837-6.781 4.837-11.217c0-5.652-4.651-10.172-10.286-10.172zM16 2.286c4.423 0 8 3.481 8 7.886 0 3.565-2.108 7.117-4.306 9.755-1.852 2.222-3.159 3.2-3.694 3.629-0.536-0.429-1.842-1.407-3.694-3.629-2.198-2.638-4.306-6.19-4.306-9.755 0-4.405 3.577-7.886 8-7.886z"></path>
        <path d="M16 6.857c-1.88 0-3.429 1.549-3.429 3.429s1.549 3.429 3.429 3.429c1.88 0 3.429-1.549 3.429-3.429s-1.549-3.429-3.429-3.429zM16 9.143c0.645 0 1.143 0.498 1.143 1.143s-0.498 1.143-1.143 1.143c-0.645 0-1.143-0.498-1.143-1.143s0.498-1.143 1.143-1.143z"></path>
        <path d="M5.714 20.572c-0 0-0 0-0 0-0.445 0-0.83 0.254-1.019 0.625l-0.003 0.006-4.571 9.143c-0.076 0.149-0.121 0.325-0.121 0.511 0 0.631 0.512 1.143 1.143 1.143h29.714c0.631-0 1.143-0.512 1.143-1.143 0-0.186-0.045-0.362-0.124-0.518l0.003 0.006-4.571-9.143c-0.192-0.378-0.577-0.632-1.022-0.632-0 0-0 0-0 0h-6.63c-0.631 0-1.143 0.512-1.143 1.143v0c0 0.631 0.512 1.143 1.143 1.143v0h5.924l3.429 6.857h-26.018l3.429-6.857h5.924c0.631 0 1.143-0.512 1.143-1.143v0c0-0.631-0.512-1.143-1.143-1.143v0z"></path>
    </symbol>
    <symbol id="news" viewBox="0 0 24 24">
        <path d="M5,1V3H1V20a3,3,0,0,0,3,3H19.24A3.77,3.77,0,0,0,23,19.24V1ZM3,20V5H5V20a1,1,0,0,1-2,0Zm18-.76A1.76,1.76,0,0,1,19.24,21H6.82A3,3,0,0,0,7,20V3H21Z"></path>
        <rect x="11" y="5" width="8" height="2"></rect>
        <rect x="9" y="9" width="10" height="2"></rect>
        <rect x="9" y="13" width="10" height="2"></rect>
        <rect x="9" y="17" width="10" height="2"></rect>
    </symbol>
    <symbol id="house" viewBox="0 0 64 64">
        <path d="M61.06,30.94l-8.87-8.87V8.48A1.5,1.5,0,0,0,50.69,7H42.28a1.5,1.5,0,0,0-1.5,1.5v2.18L33.06,2.94a1.55,1.55,0,0,0-2.12,0l-28,28A1.51,1.51,0,0,0,4,33.5H8.37V60a1.5,1.5,0,0,0,1.5,1.5H25.08a1.5,1.5,0,0,0,1.5-1.5V43.32H37.42V60a1.5,1.5,0,0,0,1.5,1.5H54.13a1.5,1.5,0,0,0,1.5-1.5V33.5H60A1.51,1.51,0,0,0,61.06,30.94Zm-6.93-.44a1.5,1.5,0,0,0-1.5,1.5V58.5H40.42V41.82a1.5,1.5,0,0,0-1.5-1.5H25.08a1.5,1.5,0,0,0-1.5,1.5V58.5H11.37V32a1.5,1.5,0,0,0-1.5-1.5H7.62L32,6.12l9.22,9.22a1.51,1.51,0,0,0,2.45-.51A45.26,45.26,0,0,0,43.78,10h5.41V22.69a1.56,1.56,0,0,0,.44,1.06l6.75,6.75Z"></path>
    </symbol>
    <symbol id="groupPeople" viewBox="0 0 25 25">
        <path d="M15.5,25h-6a.5.5,0,0,1-.5-.5V19H8.25L8,19V20.5a.5.5,0,0,1-.5.5h-5a.5.5,0,0,1-.5-.5V15H1.24A1.25,1.25,0,0,1,0,13.75v-3.5A4.26,4.26,0,0,1,3.19,6.13a3.5,3.5,0,1,1,4.61,0,4.22,4.22,0,0,1,1.3.58,3.5,3.5,0,0,1,6.82,0,4.2,4.2,0,0,1,1.29-.58,3.5,3.5,0,1,1,4.61,0A4.26,4.26,0,0,1,25,10.25v3.5A1.25,1.25,0,0,1,23.75,15H23v5.5a.5.5,0,0,1-.5.5h-5a.5.5,0,0,1-.5-.5V19l-.25,0H16v5.5A.5.5,0,0,1,15.5,25ZM10,24h5V18.5a.5.5,0,0,1,.5-.5h1.25a.25.25,0,0,0,.25-.25v-3.5A3.25,3.25,0,0,0,13.75,11h-2.5A3.25,3.25,0,0,0,8,14.25v3.5a.25.25,0,0,0,.25.25H9.5a.5.5,0,0,1,.5.5Zm8-4h4V14.5a.5.5,0,0,1,.5-.5h1.25a.26.26,0,0,0,.25-.25v-3.5A3.25,3.25,0,0,0,20.75,7h-2.5A3.21,3.21,0,0,0,16,7.95a3.5,3.5,0,0,1-1.17,2.18A4.26,4.26,0,0,1,18,14.25ZM3,20H7V14.25a4.26,4.26,0,0,1,3.2-4.12A3.5,3.5,0,0,1,9,8,3.21,3.21,0,0,0,6.74,7H4.24A3.25,3.25,0,0,0,1,10.25v3.5a.25.25,0,0,0,.24.25H2.5a.5.5,0,0,1,.5.5Zm9.5-10A2.5,2.5,0,1,0,10,7.5,2.5,2.5,0,0,0,12.5,10Zm7-4A2.5,2.5,0,1,0,17,3.5,2.5,2.5,0,0,0,19.5,6Zm-14,0A2.5,2.5,0,1,0,3,3.5,2.5,2.5,0,0,0,5.49,6Z" ></path>
    </symbol>
    <symbol id="pen" viewBox="0 0 64 61.49">
        <path d="M36,16.7a11.82,11.82,0,0,0,1.48-8.43,10.21,10.21,0,0,0-4.8-6.87c-5.05-3-11.8-1-15,4.42l-2.31,3.9L33.69,20.6Zm-4.22-3.43-9.09-5.4C24.51,5.47,27.63,4.6,30,6a4.91,4.91,0,0,1,2.29,3.35A6.4,6.4,0,0,1,31.78,13.27Z"></path>
        <path d="M1.51,53.93l1.57.78,15.27-8.25L31,25.19,12.62,14.3,0,35.58.08,51.41A3,3,0,0,0,1.51,53.93Zm13-32.32,9.17,5.44L14.51,42.47,5.39,47.4,5.34,37Z"></path>
        <rect y="56.16" width="64" height="5.33" rx="2.67" ry="2.67"></rect>
    </symbol>
</defs>
</svg>