<svg aria-hidden="true" style="position:absolute;width:0;height:0;overflow:hidden" xmlns="http://www.w3.org/2000/svg">
<defs>
    <symbol id="logo" viewBox="0 0 800 800">
        <path d="m 24.736063,167.103 c -7.412738,0 -16.6068445,3.1639 -21.6632113,11.4697 -5.0563679,8.3058 -3.33468753,19.2723 1.2721913,25.73742 l 0.00603,0.008 C 55.31295,275.7487 107.15693,347.08086 157.46942,418.75535 v 190.86674 c 0,14.44294 11.82789,23.27492 24.35738,23.27492 h 70.2202 c 6.72995,0 12.1996,-2.57921 16.30483,-6.16724 4.10522,-3.58802 8.05256,-8.33226 8.05256,-17.10768 V 418.76734 L 376.44021,278.28698 c 8.69511,-12.21607 -0.0361,-29.15287 -15.03063,-29.15656 h -99.71829 c -5.94317,6.7e-4 -11.52233,2.86347 -14.98869,7.69108 L 216.73319,298.56416 129.84268,176.4577 c -0.59577,-0.83752 -1.26048,-1.62382 -1.98717,-2.35066 -4.89029,-4.89033 -8.14641,-5.29313 -10.83661,-6.00147 -2.69018,-0.70834 -4.78069,-1.00258 -7.57323,-1.00258 z m 401.365327,0 c -7.49182,0 -12.49343,3.04143 -16.27487,6.56867 -3.78145,3.52723 -7.54128,7.93095 -7.54128,16.70625 v 321.12561 c 6e-4,10.19071 8.26106,18.45206 18.45178,18.45378 h 82.02941 c 10.19071,-0.002 18.45117,-8.26307 18.45177,-18.45378 V 388.95371 l 163.71334,234.43282 -1.37604,-2.31272 c 3.14958,6.29941 6.78526,7.79081 8.97324,8.90335 2.18798,1.11254 3.70373,1.54113 5.04883,1.89531 2.69019,0.70834 3.76601,1.00257 7.30561,1.00257 h 70.75944 C 788.17215,632.87504 800,624.04106 800,609.59812 V 190.37792 C 800,175.93513 788.17208,167.103 775.64262,167.103 h -69.15971 c -6.26473,0 -11.98335,2.20544 -16.37672,5.83571 -4.39339,3.63026 -8.49992,8.72866 -8.49992,17.43921 v 220.77024 l -164.24259,-234.57661 1.38803,2.33268 c -3.14961,-6.29923 -6.78528,-7.79082 -8.97325,-8.90334 -2.18795,-1.11253 -3.70372,-1.54114 -5.04882,-1.89531 -2.69019,-0.70834 -3.76604,-1.00258 -7.30562,-1.00258 z m 61.45067,31.23761 0.52325,0.74893 c -0.17468,-0.2169 -0.34646,-0.50404 -0.52325,-0.74893 z M 49.542807,204.00855 H 104.1512 l 97.48145,136.98931 c 7.33963,10.30887 22.64129,10.34039 30.02334,0.0619 l 39.50385,-55.0238 h 54.45661 l -82.69648,116.12693 c -2.22552,3.12583 -3.42136,6.86762 -3.42113,10.70478 V 595.99146 H 194.37697 V 412.86771 c 7e-5,-3.78964 -1.16651,-7.48742 -3.34126,-10.59094 C 144.42081,335.76278 96.650335,269.81685 49.542807,204.00855 Z m 389.647973,0 h 52.32964 l 193.4231,276.25339 c 4.6202,6.59576 12.98373,9.43416 20.66409,7.01294 7.68037,-2.42122 12.90398,-9.54294 12.9062,-17.5959 V 204.00855 h 44.58064 V 595.96748 H 710.79678 L 517.89493,319.73408 c -10.33797,-14.794 -33.57645,-7.48318 -33.58227,10.56499 v 162.75069 h -45.12188 z m 275.04711,396.88594 c 0.17118,0.21283 0.34006,0.49525 0.51327,0.73495 z"></path>
    </symbol>
    <symbol id="envelop" viewBox="0 0 32 32">
        <path d="M0.645 5.056v21.888h30.596v-21.887zM3.125 7.535h25.636v1.092l-10.659 9.614c-1.175 1.060-3.035 1.060-4.21 0l-10.768-9.614zM3.125 11.81l4.859 4.455-4.859 3.49zM28.761 11.811v7.89l-4.804-3.436zM9.851 17.977l2.991 2.742c2.263 1.449 4.47 1.387 6.31 0l2.949-2.734 6.66 4.762v1.716h-25.636v-1.66z"></path>
    </symbol>
    <symbol id="arrow_right" viewBox="0 0 45 32">
        <path d="M1.937 14.11h24.298c1.070 0 1.937 0.867 1.937 1.937s-0.867 1.937-1.937 1.937h-24.298c-1.070 0-1.937-0.867-1.937-1.937s0.867-1.937 1.937-1.937z"></path>
        <path d="M17.274 28.396l24.306-14.026c0.924-0.533 2.105-0.216 2.638 0.707v0c0.533 0.923 0.217 2.104-0.707 2.637l-24.306 14.026c-0.924 0.533-2.105 0.216-2.638-0.707v0c-0.533-0.923-0.217-2.104 0.707-2.637z"></path>
        <path d="M19.229 0.26l24.306 14.026c0.924 0.533 1.24 1.713 0.707 2.637v0c-0.533 0.923-1.714 1.24-2.638 0.707l-24.306-14.026c-0.924-0.533-1.24-1.714-0.707-2.637v0c0.533-0.923 1.714-1.24 2.638-0.707z"></path>
    </symbol>
    <symbol id="account" viewBox="0 0 24 24">
        <path
            d="m 9.3904202,1.7861091 c -1.2711746,0 -2.0653406,-0.059284 -2.9081246,0.3701656 C 5.8419339,2.4825387 5.3190311,3.0054411 4.992767,3.6458031 4.5633475,4.4885673 4.6226014,5.282742 4.6226014,6.5539297 v 0.053198 c 1e-7,0.6267761 0.5081026,1.1348785 1.1348787,1.1348786 0.6267761,-2e-7 1.1348783,-0.5081026 1.1348784,-1.1348787 v -0.053197 c 0,-1.2711878 0.058763,-1.7513605 0.1241279,-1.8796429 C 7.1254243,4.4604718 7.2969636,4.2889328 7.5107796,4.179994 7.6389966,4.114659 8.1192456,4.0558667 9.3904202,4.0558667 h 5.2200008 c 1.271175,0 1.746228,0.058403 1.875209,0.1241273 0.214559,0.1093273 0.3884,0.2820592 0.496511,0.4942928 0.06516,0.1278737 0.124126,0.6065074 0.124126,1.8752099 V 17.450539 c 0,1.268679 -0.0587,1.744616 -0.124126,1.872993 -0.108314,0.212616 -0.282821,0.38765 -0.496511,0.49651 -0.128377,0.06542 -0.604314,0.124127 -1.872994,0.124127 H 9.3859892 c -1.2686796,0 -1.7473426,-0.05896 -1.8752096,-0.124127 C 7.2982606,19.711786 7.1257394,19.537946 7.0164864,19.323532 6.9508934,19.194806 6.8923585,18.7195 6.8923585,17.448322 v -0.05763 c -1e-6,-0.626775 -0.508103,-1.134877 -1.1348784,-1.134877 -0.6267763,0 -1.1348788,0.508103 -1.1348787,1.134879 v 0.05762 c 0,1.271176 -0.059024,2.063637 0.3701656,2.90591 0.3259494,0.639694 0.8478699,1.162673 1.4895286,1.489528 0.842226,0.429194 1.635014,0.370167 2.9036936,0.370167 h 5.2266468 c 1.26868,0 2.061978,0.05876 2.903695,-0.370166 0.640419,-0.32625 1.162731,-0.848036 1.489528,-1.489528 0.428933,-0.841716 0.370165,-1.635015 0.370165,-2.903694 V 6.5494966 c 0,-1.2687024 0.05903,-2.0614737 -0.370165,-2.9036935 C 18.678858,3.0038597 18.155879,2.4821504 17.516331,2.1562747 16.674312,1.727215 15.881596,1.7861091 14.610421,1.7861091 Z m -0.228304,5.6743937 c -0.3009706,4.54e-5 -0.5895986,0.1196425 -0.8023946,0.3324841 -0.443083,0.4431783 -0.443083,1.1616113 0,1.6047893 l 1.4673636,1.4673638 -8.2777551,0 c -0.62677588,0 -1.13489958,0.508102 -1.13489998,1.134878 4e-7,0.626776 0.50811054,1.134878 1.13488648,1.134878 l 8.2777686,0 -1.4673636,1.467364 c -0.443083,0.443178 -0.443083,1.161611 0,1.604789 0.443178,0.443083 1.1616106,0.443083 1.6047886,0 l 3.4046368,-3.404638 c 0.306367,-0.336208 0.516252,-1.06251 3e-6,-1.604798 L 9.9645172,7.7929847 C 9.7517192,7.5801425 9.4630892,7.4605461 9.1621162,7.4605028 Z"
      />
       </symbol>
    <symbol id="phone" viewBox="0 0 24 24">
        <path d="M 3.4734374,0 C 1.5693417,0 0,1.5691946 0,3.4734374 0,14.79558 9.2043859,24 20.526563,24 22.430865,24 24,22.430636 24,20.526563 V 17.22422 c 0,-1.468386 -0.89857,-2.796786 -2.26172,-3.342189 l -3.16406,-1.265625 c -1.225355,-0.490142 -2.627935,-0.268588 -3.642189,0.576563 a 1.20012,1.20012 0 0 0 0,0.0024 L 14.116406,13.875 c -0.484691,0.40393 -1.171312,0.373219 -1.617186,-0.07265 L 10.2,11.50078 C 9.7530948,11.053834 9.7212384,10.36808 10.125,9.8835936 L 10.804687,9.0679688 C 11.649384,8.0543506 11.87414,6.6522698 11.383594,5.4257812 L 10.117969,2.2640626 C 9.5726068,0.90066672 8.2442087,0 6.7757812,0 Z m 0,2.4 h 3.3023438 c 0.4943146,0 0.929692,0.2957172 1.1132814,0.7546874 L 9.1546875,6.31875 C 9.3176591,6.7286505 9.2459871,7.1902903 8.9625,7.5304688 L 8.2804688,8.3484375 C 7.0949039,9.771036 7.1945996,11.889007 8.5031251,13.197657 L 10.8,15.49922 a 1.20012,1.20012 0 0 0 0.0024,0 c 1.309485,1.309482 3.426872,1.40566 4.84922,0.220311 a 1.20012,1.20012 0 0 0 0.0024,0 L 16.469643,15.0375 c 0.340306,-0.283568 0.80262,-0.356764 1.214063,-0.192188 l 3.16172,1.265625 C 21.304481,16.294654 21.6,16.729645 21.6,17.22422 v 3.302343 C 21.6,21.133847 21.133618,21.6 20.526563,21.6 10.501481,21.6 2.4,13.49848 2.4,3.4734374 2.4,2.8662508 2.8660798,2.4 3.4734374,2.4 Z"></path>
    </symbol>
    <symbol id="map" viewBox="0 0 24 24">
        <path d="M 12.096815,0 C 9.5238976,0 7.0549686,1.0103155 5.2319178,2.813327 3.4089547,4.6162658 2.3806369,7.0660796 2.3806369,9.6212934 c 0,6.6009976 5.4936307,11.6195686 7.8825341,13.5756076 0.326055,0.267004 0.668351,0.556974 1.174196,0.699774 0.489074,0.137767 0.829822,0.137767 1.318896,0 0.503183,-0.142017 0.846645,-0.431688 1.174197,-0.699774 2.388876,-1.956039 7.882534,-6.972339 7.882534,-13.5732348 0,-2.5551808 -1.028103,-5.0072565 -2.851281,-6.8103392 C 17.13874,1.0103096 14.669685,0 12.096815,0 Z m 0,2.4290446 c 1.936648,0 3.791346,0.7605004 5.156976,2.1111813 1.365668,1.3506157 2.130159,3.1786076 2.130159,5.0834403 0,5.1843308 -4.816056,9.9115918 -6.99062,11.6921488 -0.327559,0.268091 -0.312687,0.246502 -0.296515,0.241956 0.01982,0.0056 0.03011,0.02552 -0.296514,-0.241956 C 9.6257144,19.535259 4.8096815,14.805646 4.8096815,9.6212934 c 0,-1.904774 0.7643963,-3.7303078 2.1301582,-5.0810675 C 8.3055385,3.1895392 10.160216,2.4290446 12.096815,2.4290446 Z"></path>
        <path d="m 12.096815,4.8580892 c -1.997917,0 -3.6435666,1.6456901 -3.6435666,3.6435669 0,1.9978959 1.6456716,3.6435669 3.6435666,3.6435669 1.997896,0 3.643567,-1.645671 3.643567,-3.6435669 0,-1.9978768 -1.645649,-3.6435669 -3.643567,-3.6435669 z m 0,2.4290446 c 0.685204,0 1.214523,0.529352 1.214523,1.2145223 0,0.6852243 -0.529297,1.2145224 -1.214523,1.2145224 -0.685225,0 -1.214522,-0.5292981 -1.214522,-1.2145224 0,-0.6851703 0.529319,-1.2145223 1.214522,-1.2145223 z"></path>
    </symbol>
    <symbol id="news" viewBox="0 0 24 24">
        <path d="m 5.6040563,0.00326604 c -1.4932752,0 -2.4261992,-0.06960599 -3.4162017,0.43483669 C 1.435616,0.82136803 0.82135806,1.4356259 0.43809275,2.1878646 -0.06634992,3.1778671 0.00325607,4.110791 0.00325607,5.6040663 V 18.401803 c 0,1.493262 -0.06937455,2.424097 0.43483668,3.413598 0.38302588,0.75171 0.99650095,1.366056 1.74976185,1.749762 C 3.1772176,24.069336 4.1084929,24 5.5988487,24 h 7.3062973 c 0.157343,0 0.297123,0.0011 0.42963,0 0.0032,-2.7e-5 0.0072,3e-5 0.0104,0 9.13e-4,-8e-6 0.0017,8e-6 0.0026,0 a 1.3331518,1.3331518 0 0 0 0.0026,0 c 0.406028,-0.0035 0.763979,-0.01713 1.148282,-0.109362 0.408241,-0.09801 0.797367,-0.261147 1.153487,-0.479101 l 0.0026,-0.0026 c 0.449016,-0.275619 0.745034,-0.588805 1.205567,-1.049338 l 5.499251,-5.499251 c 0.462045,-0.462046 0.774083,-0.756525 1.049337,-1.205566 a 1.3332852,1.3332852 0 0 0 0,-0.0026 c 0.219082,-0.357608 0.380932,-0.747387 0.479101,-1.156092 0.09225,-0.38438 0.108105,-0.739672 0.111957,-1.14828 3.6e-5,-0.004 -3.6e-5,-0.009 0,-0.01306 0.0011,-0.133275 0,-0.276144 0,-0.434837 V 5.5988586 C 23.99999,4.1085029 24.069326,3.1772275 23.565153,2.1878646 23.181021,1.4337681 22.566674,0.82091169 21.815391,0.43810273 20.826265,-0.06591733 19.895055,0.00326604 18.401793,0.00326604 Z m 0,2.66630376 H 18.401793 c 1.493262,0 2.051309,0.068607 2.202825,0.1458135 0.252046,0.1284278 0.456256,0.3313374 0.583255,0.5806501 0.07655,0.1502141 0.145813,0.7124695 0.145813,2.2028252 v 6.4027744 h -5.866389 c -0.746564,0 -1.305946,-0.06721 -2.010143,0.291627 -0.501219,0.255404 -0.9085,0.662684 -1.163904,1.163904 -0.359154,0.704797 -0.291627,1.263446 -0.291627,2.010143 v 5.866389 H 5.5988487 c -1.4903558,0 -2.0526111,-0.06927 -2.2028252,-0.145813 C 3.1458754,21.060459 2.943584,20.856249 2.8153734,20.604628 2.7383572,20.453487 2.6695598,19.895065 2.6695598,18.401803 V 5.6040663 c 0,-1.4932753 0.069029,-2.0573384 0.1458136,-2.2080329 C 2.9433445,3.144863 3.144853,2.9433545 3.3960235,2.8153833 3.546718,2.738599 4.1107811,2.6695698 5.6040563,2.6695698 Z M 14.667927,14.667937 c -0.133877,0.06822 0.0528,0 0.79937,0 h 5.290946 c -0.09951,0.106208 -0.08632,0.109762 -0.283815,0.30725 l -5.499251,5.499251 c -0.198072,0.198073 -0.200867,0.184103 -0.30725,0.283815 v -5.290946 c 0,-0.746697 0.06853,-0.933845 0,-0.79937 z"></path>
    </symbol>
    <symbol id="groupPeople" viewBox="0 0 24 24">
        <path d="m 7.2,1.8 c -2.6367492,0 -4.8,2.1632508 -4.8,4.8 0,1.4139757 0.620207,2.6989429 1.6007812,3.576563 A 1.2,1.2 0 0 0 5.6953125,10.08281 1.2,1.2 0 0 0 5.5992187,8.3882793 C 5.1067944,7.9475584 4.8,7.3184221 4.8,6.6 4.8,5.2603131 5.8603131,4.2 7.2,4.2 c 0.6212711,0 1.1749303,0.2305741 1.6007815,0.6117188 a 1.2,1.2 0 0 0 1.6945305,-0.09375 1.2,1.2 0 0 0 -0.0961,-1.6945313 C 9.5512473,2.2644873 8.4227672,1.8 7.2,1.8 Z m 9.6,0 c -1.222808,0 -2.351275,0.464568 -3.19922,1.2234374 a 1.2,1.2 0 0 0 -0.0961,1.6945314 1.2,1.2 0 0 0 1.694532,0.093749 C 15.625192,4.4304934 16.17865,4.2 16.8,4.2 c 1.339766,0 2.4,1.060289 2.4,2.4 0,0.7183772 -0.306808,1.3475351 -0.79922,1.7882815 a 1.2,1.2 0 0 0 -0.09375,1.6945305 1.2,1.2 0 0 0 1.692188,0.09375 C 20.979686,9.2989658 21.6,8.0140208 21.6,6.6 21.6,3.9632749 19.436789,1.8 16.8,1.8 Z M 12,5.4 c -2.6367895,0 -4.8,2.1632749 -4.8,4.8 0,2.636767 2.1632345,4.8 4.8,4.8 2.636765,0 4.8,-2.163233 4.8,-4.8 0,-2.6367251 -2.163211,-4.8 -4.8,-4.8 z m 0,2.4 c 1.339766,0 2.4,1.0602895 2.4,2.4 0,1.33979 -1.06021,2.4 -2.4,2.4 -1.33979,0 -2.4,-1.06021 -2.4,-2.4 0,-1.3397105 1.060234,-2.4 2.4,-2.4 z M 4.4953125,12.939843 C 3.2853276,13.257021 2.2219679,13.776821 1.4039063,14.5125 0.58584469,15.248177 0,16.260613 0,17.4 a 1.2,1.2 0 0 0 1.2,1.2 1.2,1.2 0 0 0 1.2,-1.2 c 0,-0.336852 0.154864,-0.697275 0.6070312,-1.103906 0.4521671,-0.406631 1.1885633,-0.797635 2.0976562,-1.035937 A 1.2,1.2 0 0 0 5.9601563,13.795312 1.2,1.2 0 0 0 4.4953125,12.939843 Z m 15.0093755,0 a 1.2,1.2 0 0 0 -1.464845,0.855469 1.2,1.2 0 0 0 0.855469,1.464845 c 0.909093,0.238302 1.645489,0.629306 2.097657,1.035937 C 21.445137,16.702725 21.6,17.063148 21.6,17.4 a 1.2,1.2 0 0 0 1.2,1.2 1.2,1.2 0 0 0 1.2,-1.2 c 0,-1.139387 -0.585844,-2.151823 -1.403906,-2.8875 -0.818062,-0.735679 -1.881421,-1.255479 -3.091406,-1.572657 z M 12,16.2 c -1.851401,0 -3.5442382,0.43577 -4.8609375,1.22578 C 5.8223631,18.215793 4.8,19.465436 4.8,21 A 1.2,1.2 0 0 0 6,22.2 1.2,1.2 0 0 0 7.2,21 C 7.2,20.546287 7.5193463,19.996512 8.3742188,19.483594 9.2290909,18.970677 10.537702,18.6 12,18.6 c 1.462285,0 2.770905,0.370676 3.62578,0.883594 C 16.480658,19.996513 16.8,20.546291 16.8,21 A 1.2,1.2 0 0 0 18,22.2 1.2,1.2 0 0 0 19.2,21 c 0,-1.53457 -1.022362,-2.784208 -2.339063,-3.57422 C 15.544236,16.635771 13.851392,16.2 12,16.2 Z" ></path>
    </symbol>
    <symbol id="pen" viewBox="0 0 24 24">
        <path d="M 12,0 C 5.3868056,0 0,5.3868056 0,12 c 0,2.145697 0.5757593,4.164325 1.5664062,5.910156 l -0.89843745,2.689453 a 1.20012,1.20012 0 0 0 -0.001953,0.0078 c -0.0966422,0.289787 -0.17665456,0.518813 -0.23828124,0.78125 -0.0619516,0.263821 -0.13258159,0.623177 0.0253906,1.066406 a 1.20012,1.20012 0 0 0 0,0.002 c 0.18115626,0.507784 0.5809213,0.907932 1.0898437,1.089844 0.444449,0.158614 0.8042854,0.08745 1.0683594,0.02539 0.2640741,-0.06206 0.4947089,-0.142735 0.7871094,-0.240235 a 1.20012,1.20012 0 0 0 0.1054688,-0.04102 L 3.4550781,23.3125 6.0917969,22.435547 C 7.8374044,23.425882 9.8545565,24 12,24 18.613231,24 24,18.613215 24,12 24,5.3868121 18.613237,0 12,0 Z m 0,2.4003906 c 5.316191,0 9.599609,4.2834652 9.599609,9.5996094 0,5.316213 -4.283412,9.599609 -9.599609,9.599609 -1.748749,0 -3.3796308,-0.464528 -4.7890625,-1.277343 -0.156229,-0.09011 -0.2858058,-0.189958 -0.5878906,-0.273438 h -0.00195 c -0.1769508,-0.04867 -0.4095824,-0.07345 -0.5996093,-0.06055 h -0.00195 c -0.292616,0.02008 -0.4501591,0.09073 -0.6054687,0.142578 l -2.3164062,0.771485 0.7636718,-2.289063 -0.00781,0.01563 a 1.20012,1.20012 0 0 0 0.017578,-0.04492 C 3.9225087,18.429719 3.9916204,18.272261 4.0117187,17.978516 4.0247551,17.787959 4.0007874,17.55626 3.9511719,17.376953 3.868224,17.076855 3.7698021,16.947708 3.6816406,16.794922 a 1.20012,1.20012 0 0 0 -0.00391,-0.0039 v -0.002 l -0.00195,-0.0039 C 2.8642786,15.376588 2.4003906,13.747227 2.4003906,12 2.4003906,6.6838623 6.6838623,2.4003906 12,2.4003906 Z m 2.751953,6.3515625 -3.953125,3.9511719 -1.5507811,-1.550781 a 1.2,1.2 0 0 0 -1.6972657,0 1.2,1.2 0 0 0 0,1.695312 l 2.4003907,2.400391 a 1.20012,1.20012 0 0 0 1.6972661,0 l 4.800781,-4.798828 a 1.2,1.2 0 0 0 0,-1.6972659 1.2,1.2 0 0 0 -1.697266,0 z"
     ></path>
        
    </symbol>
    <symbol id="faq" viewBox="0 0 24 24">
        <path d="m 9.1126123,4.7182029e-4 c -0.5869903,0 -0.9728718,-0.0129041403 -1.4366356,0.0984330997 C 7.3076984,0.18731574 6.9564631,0.33343437 6.6353946,0.53018429 6.2336174,0.77639337 5.9724879,1.0569232 5.5690089,1.4605913 l -0.00463,0.00232 -0.00239,0.00239 c -0.00394,0.00388 -0.0078,0.00773 -0.011671,0.011672 L 1.4910524,5.5362275 c -0.00631,0.0054 -0.012509,0.010843 -0.018702,0.016382 C 1.0597397,5.9652199 0.77892325,6.2295203 0.53020141,6.6353775 0.33291538,6.9573029 0.18722901,7.3081139 0.09892231,7.6759595 -0.01241499,8.1397234 4.8891654e-4,8.5256049 4.8891654e-4,9.1125961 v 5.7748089 c 0,0.586894 -0.0129084865,0.972808 0.0984331035,1.436636 0.0883718,0.368166 0.23442003,0.719243 0.43127908,1.040582 0.24933454,0.406718 0.5319582,0.670232 0.946789,1.085087 l 4.0733161,4.073317 c 0.4150457,0.415045 0.678418,0.695425 1.085088,0.944468 0.3203542,0.196383 0.6712973,0.344928 1.0405821,0.433599 0.4633906,0.111296 0.8491132,0.09843 1.4343156,0.09843 h 5.7794491 c 0.585216,0 0.970078,0.01308 1.434316,-0.09843 0.369173,-0.08863 0.720107,-0.237267 1.040582,-0.433599 0.406035,-0.248769 0.672171,-0.529162 1.087479,-0.944468 l 4.070926,-4.073317 c 0.415387,-0.415389 0.698138,-0.67912 0.946787,-1.085087 0.198192,-0.323394 0.341123,-0.675013 0.42889,-1.040582 0.111125,-0.462587 0.100817,-0.848968 0.100817,-1.436636 V 9.1125961 c 0,-0.5876452 0.01036,-0.9740372 -0.100817,-1.4366366 -0.0877,-0.3652568 -0.230281,-0.7166179 -0.42889,-1.040582 -0.249015,-0.406625 -0.531709,-0.6700337 -0.946787,-1.085088 L 18.452118,1.4769733 C 18.037331,1.0620772 17.771568,0.77952401 17.364639,0.53018429 17.043227,0.33316865 16.692225,0.18727625 16.324057,0.09890521 15.85954,-0.01260314 15.474436,4.7182029e-4 14.887421,4.7182029e-4 Z m 0,2.39994767971 h 5.7748087 c 0.587015,0 0.788539,0.011653 0.876479,0.032764 0.121652,0.0292 0.238979,0.079174 0.346908,0.14533 0.07737,0.047408 0.227522,0.1805874 0.642138,0.5953114 l 4.073246,4.0732458 c 0.415046,0.4150217 0.547701,0.5643914 0.59531,0.6421375 h 0.0024 c 0.06467,0.1054726 0.113049,0.2224177 0.142939,0.3469077 0.02152,0.089809 0.03276,0.2901429 0.03276,0.8764793 v 5.7748088 c 0,0.586359 -0.01123,0.786608 -0.03276,0.876478 -0.02984,0.124248 -0.07793,0.240719 -0.14301,0.346907 -0.04797,0.07834 -0.182896,0.227403 -0.597631,0.642139 l -4.073245,4.073245 c -0.414819,0.414817 -0.563633,0.547213 -0.642139,0.595312 -0.108871,0.0667 -0.226264,0.116369 -0.346907,0.145329 -0.08726,0.02096 -0.288944,0.03276 -0.874159,0.03276 H 9.1103007 c -0.5852022,0 -0.7859812,-0.0116 -0.8741588,-0.03276 C 8.1156711,21.537885 7.9983327,21.488375 7.8892256,21.421486 7.8115241,21.373908 7.6621665,21.241253 7.2470881,20.826174 L 3.1738423,16.752929 C 2.7590769,16.338139 2.6259435,16.188132 2.5785308,16.11079 2.5122172,16.002546 2.4624007,15.885534 2.4332008,15.763883 2.4119253,15.675253 2.4004366,15.474299 2.4004366,14.887405 V 9.1125961 c 0,-0.5869912 0.011484,-0.7878359 0.032765,-0.8764799 C 2.4624652,8.1142148 2.5126442,7.9967205 2.5785308,7.8892085 2.6236946,7.8155116 2.7718902,7.650352 3.1433279,7.277515 l 0.00239,-0.00463 c 0.00394,-0.00388 0.0078,-0.00781 0.011671,-0.011741 l 0.011742,-0.011741 c 0.00156,-7.766e-4 0.00315,-0.00153 0.00472,-0.00232 l 4.0591764,-4.0591907 0.011741,-0.011741 c 0.00473,-0.00464 0.00941,-0.00934 0.014061,-0.014061 C 7.6664068,2.7545062 7.8134028,2.6249781 7.8892256,2.5785137 7.9976185,2.5120907 8.1146644,2.4623441 8.2361331,2.4331838 8.3247777,2.4119028 8.525622,2.400419 9.1126123,2.4004195 Z m 2.7931197,2.4003697 c -0.219646,0.00417 -0.439523,0.02341 -0.658028,0.058076 C 10.373432,4.9975646 9.5538146,5.3756765 8.8805912,5.9510542 8.2079015,6.5259226 7.7078438,7.2769688 7.4346036,8.1189099 7.2301091,8.7492636 7.5752737,9.4260454 8.2056188,9.6305662 8.8359727,9.8350598 9.512755,9.4898253 9.7172756,8.8594805 9.8539373,8.4383808 10.104637,8.0645593 10.441463,7.7767132 c 0.336173,-0.2873129 0.746321,-0.4766529 1.183594,-0.5460243 0.437515,-0.06941 0.884444,-0.017101 1.293697,0.1522905 0.408738,0.1692127 0.761232,0.4478238 1.021809,0.8062402 0.260097,0.35787 0.417451,0.78149 0.4523,1.2233873 0.03479,0.4411032 -0.05445,0.8827041 -0.255435,1.2773141 -0.201241,0.39495 -0.506181,0.724955 -0.883581,0.956211 -0.377653,0.231411 -0.811251,0.353867 -1.25383,0.353867 -0.662686,6.6e-5 -1.19991,0.537288 -1.199975,1.199975 v 1.199903 c 0,0.662714 0.537261,1.199974 1.199975,1.199974 0.662713,0 1.199974,-0.53726 1.199974,-1.199974 V 14.06007 c 0.441481,-0.118986 0.914319,-0.126846 1.307758,-0.367928 0.754873,-0.462555 1.367798,-1.124224 1.769411,-1.912422 0.401626,-0.788537 0.578233,-1.674173 0.50862,-2.5569496 C 16.716234,8.3408851 16.404014,7.4945924 15.883427,6.778317 15.363077,6.0625876 14.653185,5.5045842 13.835097,5.165907 13.221736,4.9120329 12.564671,4.7883033 11.905732,4.8007892 Z m 0.09429,11.9990368 a 1.2585422,1.259714 0 0 0 -1.258542,1.259666 1.2585422,1.259714 0 0 0 1.258542,1.259736 1.2585422,1.259714 0 0 0 1.258542,-1.259736 1.2585422,1.259714 0 0 0 -1.258542,-1.259666 z" >
</path>
    </symbol>
    <symbol id="right-news" viewBox="0 0 32 32">
        <path d="M19.414 27.414l10-10c0.781-0.781 0.781-2.047 0-2.828l-10-10c-0.781-0.781-2.047-0.781-2.828 0s-0.781 2.047 0 2.828l6.586 6.586h-19.172c-1.105 0-2 0.895-2 2s0.895 2 2 2h19.172l-6.586 6.586c-0.39 0.39-0.586 0.902-0.586 1.414s0.195 1.024 0.586 1.414c0.781 0.781 2.047 0.781 2.828 0z"></path>
    </symbol>
    <symbol id="left-news" viewBox="0 0 32 32">
        <path d="M12.586 27.414l-10-10c-0.781-0.781-0.781-2.047 0-2.828l10-10c0.781-0.781 2.047-0.781 2.828 0s0.781 2.047 0 2.828l-6.586 6.586h19.172c1.105 0 2 0.895 2 2s-0.895 2-2 2h-19.172l6.586 6.586c0.39 0.39 0.586 0.902 0.586 1.414s-0.195 1.024-0.586 1.414c-0.781 0.781-2.047 0.781-2.828 0z"></path>
    </symbol>
    <symbol id="backToTop" viewBox="0 0 32 32">
    <path d="M24.4,24c-0.9,0-1.8-0.3-2.5-1l-5.8-5.7c-0.1-0.1-0.2-0.1-0.3,0L10.1,23c-1.4,1.4-3.6,1.4-5,0c-0.7-0.7-1-1.6-1-2.5
		c0-1,0.4-1.8,1-2.5l9.4-9.3c0.9-0.9,2.3-0.9,3.1,0l9.4,9.3c0.7,0.7,1,1.6,1,2.5c0,1-0.4,1.8-1,2.5C26.2,23.7,25.3,24,24.4,24z"/>
    </symbol>
</defs>
</svg>