<svg aria-hidden="true" style="position:absolute;width:0;height:0;overflow:hidden" xmlns="http://www.w3.org/2000/svg"><defs><symbol id="logo" viewBox="0 0 27 16"><path d="M.243 0c-.22 0-.3.16-.2.3 1.94 2.72 3.92 5.44 5.84 8.18v7.34c0 .08.08.18.22.18h2.62c.12 0 .22-.1.22-.18V8.48l3.86-5.42h-3.72L7.403 5.4 3.603.06c-.04-.04-.14-.06-.2-.06zm13.4 0c-.1 0-.2.1-.2.18v11.98h3.06V5.4l7.36 10.54c.02.04.14.06.18.06h2.64c.14 0 .22-.1.22-.18V.18c0-.08-.08-.18-.22-.18h-2.58c-.14 0-.24.1-.24.18V10.6L16.483.06c-.02-.04-.14-.06-.18-.06z"/></symbol><symbol id="menu" viewBox="0 0 16 16"><path d="M12.667 11.333H3.334c-.735 0-1.333.598-1.333 1.333s.598 1.333 1.333 1.333h9.333c.735 0 1.333-.598 1.333-1.333s-.598-1.333-1.333-1.333zM12.667 6.667H3.334c-.735 0-1.333.598-1.333 1.333s.598 1.333 1.333 1.333h9.333C13.402 9.333 14 8.735 14 8s-.598-1.333-1.333-1.333zM12.667 2H3.334c-.735 0-1.333.598-1.333 1.333s.598 1.333 1.333 1.333h9.333c.735 0 1.333-.598 1.333-1.333S13.402 2 12.667 2z"/></symbol></defs></svg>