<!-- Generated by IcoMoon.io -->
<svg version="1.1" xmlns="http://www.w3.org/2000/svg" width="32" height="32" viewBox="0 0 32 32">
<title>g3400</title>
<path fill="#000" opacity="0.619608" d="M18.944 1.253c1.627 2.855 2.823 5.698 3.57 8.529h8.202c-2.252-4.557-6.566-7.798-11.69-8.52l-0.082-0.009zM16.386 1.285c-1.712 2.892-2.963 5.723-3.762 8.497h7.525c-0.799-2.774-2.051-5.606-3.764-8.497zM13.719 1.444c-4.752 1.010-8.626 4.099-10.685 8.249l-0.040 0.090h7.265c0.73-2.768 1.887-5.548 3.46-8.339zM2.010 12.383c-0.359 1.238-0.565 2.66-0.565 4.131v0c0.004 1.472 0.213 2.894 0.602 4.24l-0.027-0.109h7.631c-0.431-2.742-0.41-5.496 0.049-8.263zM12.005 12.383c-0.529 2.813-0.585 5.566-0.176 8.263h9.114c0.409-2.697 0.353-5.45-0.176-8.263zM23.074 12.383c0.459 2.766 0.48 5.521 0.049 8.263h8.568c0.361-1.237 0.571-2.659 0.575-4.129v-0.002c-0-1.471-0.207-2.893-0.592-4.24l0.027 0.109zM2.995 23.247c2.123 4.29 6.064 7.405 10.789 8.358l0.099 0.017c-1.725-2.778-2.946-5.57-3.685-8.375zM12.372 23.247c0.781 2.935 2.125 5.803 4.014 8.607 1.889-2.804 3.233-5.671 4.015-8.607zM22.576 23.247c-0.755 2.863-2.013 5.713-3.795 8.547 5.273-0.682 9.657-3.943 11.894-8.458l0.040-0.090z"></path>
<path fill="#fff" d="M17.5 0c1.627 2.855 2.823 5.698 3.57 8.529h8.202c-2.252-4.557-6.566-7.798-11.69-8.52l-0.082-0.009zM14.941 0.032c-1.712 2.892-2.963 5.723-3.762 8.497h7.525c-0.799-2.774-2.051-5.606-3.764-8.497zM12.275 0.191c-4.752 1.010-8.626 4.099-10.685 8.249l-0.040 0.090h7.265c0.73-2.768 1.887-5.548 3.46-8.339zM0.565 11.131c-0.358 1.238-0.565 2.661-0.565 4.131v0c0.004 1.472 0.213 2.894 0.602 4.24l-0.027-0.109h7.631c-0.431-2.742-0.41-5.496 0.049-8.263zM10.561 11.131c-0.529 2.813-0.585 5.566-0.176 8.263h9.114c0.409-2.697 0.353-5.45-0.176-8.263zM21.629 11.131c0.459 2.766 0.48 5.521 0.049 8.263h8.568c0.361-1.237 0.571-2.659 0.575-4.129v-0.002c-0-1.471-0.207-2.893-0.592-4.24l0.027 0.109zM1.551 21.994c2.123 4.29 6.064 7.405 10.789 8.358l0.099 0.017c-1.725-2.778-2.946-5.57-3.685-8.375zM10.928 21.994c0.781 2.935 2.125 5.803 4.014 8.607 1.889-2.804 3.233-5.671 4.015-8.607zM21.132 21.994c-0.755 2.863-2.013 5.713-3.795 8.547 5.273-0.682 9.657-3.943 11.894-8.458l0.040-0.090z"></path>
</svg>
