<?xml version="1.0" encoding="UTF-8" standalone="no"?>
<svg
   viewBox="0 0 499.99998 500.00002"
   version="1.1"
   id="svg1"
   sodipodi:docname="logo.svg"
   width="500"
   height="500"
   inkscape:version="1.3.2 (091e20e, 2023-11-25, custom)"
   inkscape:export-filename="..\..\..\..\..\Desktop\logo.png"
   inkscape:export-xdpi="96"
   inkscape:export-ydpi="96"
   xmlns:inkscape="http://www.inkscape.org/namespaces/inkscape"
   xmlns:sodipodi="http://sodipodi.sourceforge.net/DTD/sodipodi-0.dtd"
   xmlns="http://www.w3.org/2000/svg"
   xmlns:svg="http://www.w3.org/2000/svg">
  <defs
     id="defs1" />
  <sodipodi:namedview
     id="namedview1"
     pagecolor="#515151"
     bordercolor="#000000"
     borderopacity="0.25"
     inkscape:showpageshadow="2"
     inkscape:pageopacity="0.0"
     inkscape:pagecheckerboard="0"
     inkscape:deskcolor="#d1d1d1"
     inkscape:zoom="0.82561581"
     inkscape:cx="245.27147"
     inkscape:cy="370.02683"
     inkscape:window-width="1680"
     inkscape:window-height="987"
     inkscape:window-x="-8"
     inkscape:window-y="18"
     inkscape:window-maximized="1"
     inkscape:current-layer="svg1" />
  <path
     d="m 11.860538,105.7918 c -3.9703378,0 -5.4099641,2.87932 -3.6066427,5.41008 34.9753427,49.02411 70.6629207,98.06339 105.2745647,147.45121 v 132.3121 c 0,1.43968 1.43963,3.24301 3.97034,3.24301 h 47.21975 c 2.16701,0 3.97032,-1.80337 3.97032,-3.24301 v -132.3121 l 69.57185,-97.69968 h -67.05627 l -30.27762,42.17437 -68.49591,-96.26002 c -0.727389,-0.72741 -2.530711,-1.07596 -3.606641,-1.07596 z m 241.538992,0 c -1.80333,0 -3.60666,1.80336 -3.60666,3.24302 v 215.94859 h 55.16042 V 203.12778 l 132.67294,189.98931 c 0.36375,0.72735 2.53072,1.07594 3.24294,1.07594 h 47.58345 c 2.53072,0 3.97033,-1.80337 3.97033,-3.24301 v -281.9152 c 0,-1.43966 -1.43969,-3.24302 -3.97033,-3.24302 h -46.5075 c -2.53073,0 -4.31889,1.80336 -4.31889,3.24302 V 296.85706 L 304.60476,106.86776 c -0.36375,-0.72741 -2.53072,-1.07596 -3.24295,-1.07596 z"
     id="path1"
     style="fill:#ffffff;fill-opacity:0;stroke:#ffffff;stroke-width:15.1541;stroke-opacity:1" />
</svg>
